Coordinates
version=1
nRows=34
nColumns=38
inDegrees=no

Units are S.I. units (second, meters, Newtons, ...)
If the header above contains a line with 'inDegrees', this indicates whether rotational values are in degrees (yes) or radians (no).

endheader
time	pelvis_tilt	pelvis_list	pelvis_rotation	pelvis_tx	pelvis_ty	pelvis_tz	hip_flexion_r	hip_adduction_r	hip_rotation_r	knee_angle_r	ankle_angle_r	subtalar_angle_r	mtp_angle_r	hip_flexion_l	hip_adduction_l	hip_rotation_l	knee_angle_l	ankle_angle_l	subtalar_angle_l	mtp_angle_l	lumbar_extension	lumbar_bending	lumbar_rotation	arm_flex_r	arm_add_r	arm_rot_r	elbow_flex_r	pro_sup_r	wrist_flex_r	wrist_dev_r	arm_flex_l	arm_add_l	arm_rot_l	elbow_flex_l	pro_sup_l	wrist_flex_l	wrist_dev_l
0.81	0.0908986	1.46882	-1.62324	0.802167	1.05777	0.940624	0.375972	-0.172995	-0.387464	0.47336	0.125471	0	0	-0.296698	0.049489	-0.151498	0.00992393	0.121687	0	0	-0.213966	0.0138129	-0.203045	-0.0543436	-0.286984	0.431011	0.592901	1.34017	0	0	0.127372	-0.495567	0.322207	0.848725	0.944505	0	0
0.82	0.0992088	1.47414	-1.6343	0.801651	1.04927	0.93855	0.382446	-0.163827	-0.388062	0.419057	0.130225	0	0	-0.305265	0.0506819	-0.14986	0.00265808	0.126725	0	0	-0.211064	0.0145399	-0.201065	-0.0519714	-0.286827	0.441595	0.591157	1.31015	0	0	0.133005	-0.496312	0.317193	0.85108	0.954834	0	0
0.83	0.117686	1.48026	-1.6555	0.801022	1.04075	0.936284	0.389544	-0.155243	-0.385654	0.367067	0.137419	0	0	-0.310825	0.0522283	-0.151263	6.04782e-08	0.133973	0	0	-0.207417	0.0143848	-0.198561	-0.0501907	-0.283478	0.437077	0.586479	1.31971	0	0	0.139333	-0.49757	0.316583	0.853394	0.95506	0	0
0.84	0.131393	1.48573	-1.67214	0.800263	1.03214	0.93404	0.393884	-0.144758	-0.37693	0.313872	0.142834	0	0	-0.316553	0.0529714	-0.153971	0	0.142011	0	0	-0.20464	0.0149225	-0.195665	-0.0476949	-0.279855	0.432056	0.580848	1.32694	0	0	0.144974	-0.498178	0.314947	0.855882	0.957041	0	0
0.85	0.141435	1.49047	-1.68456	0.799498	1.02347	0.931841	0.395727	-0.133733	-0.36406	0.261361	0.145167	0	0	-0.322269	0.0529846	-0.156963	0	0.150783	0	0	-0.202776	0.0161419	-0.193226	-0.0443469	-0.276227	0.4271	0.574285	1.33214	0	0	0.150272	-0.49799	0.313023	0.857225	0.960863	0	0
0.86	0.14273	1.49373	-1.68728	0.798817	1.0146	0.929816	0.390254	-0.121806	-0.33955	0.202166	0.138717	0	0	-0.329292	0.0519793	-0.15996	6.49104e-08	0.159956	0	0	-0.202231	0.0184341	-0.191473	-0.040599	-0.272685	0.42502	0.565018	1.34317	0	0	0.155371	-0.496387	0.310569	0.855861	0.969219	0	0
0.87	0.15009	1.49588	-1.69511	0.798167	1.00544	0.92783	0.384033	-0.11261	-0.318399	0.151548	0.131735	0	0	-0.336919	0.0509956	-0.163375	0.00286916	0.169333	0	0	-0.202309	0.020308	-0.190591	-0.0373337	-0.269626	0.423611	0.55709	1.3529	0	0	0.159466	-0.494718	0.309194	0.854618	0.977663	0	0
0.88	0.16347	1.49708	-1.70784	0.797532	0.996042	0.925886	0.380069	-0.106299	-0.306511	0.115415	0.127744	0	0	-0.345055	0.0498723	-0.166015	0.00722287	0.178406	0	0	-0.203033	0.0217147	-0.190376	-0.0345733	-0.266791	0.420818	0.550876	1.35569	0	0	0.163132	-0.492945	0.30886	0.854805	0.982888	0	0
0.89	0.171086	1.49703	-1.71342	0.796937	0.986326	0.924095	0.374295	-0.100993	-0.294598	0.0866381	0.122207	0	0	-0.35353	0.0475252	-0.169291	0.0143234	0.188424	0	0	-0.204578	0.0237235	-0.191702	-0.0315924	-0.26363	0.416195	0.54444	1.3549	0	0	0.165394	-0.490755	0.308379	0.854547	0.988024	0	0
0.9	0.171912	1.49595	-1.71086	0.796407	0.976295	0.922458	0.369456	-0.0974513	-0.287747	0.0711096	0.118265	0	0	-0.361653	0.0438459	-0.173882	0.0249879	0.199478	0	0	-0.206684	0.0264366	-0.194516	-0.0287132	-0.260971	0.416065	0.536764	1.35628	0	0	0.1658	-0.48866	0.309489	0.853016	0.993262	0	0
0.91	0.165772	1.4937	-1.70061	0.795912	0.965998	0.920998	0.367037	-0.0957792	-0.288569	0.0716727	0.117149	0	0	-0.369709	0.038989	-0.180139	0.0389397	0.211312	0	0	-0.209518	0.0297183	-0.197707	-0.0261996	-0.259309	0.421091	0.52862	1.36187	0	0	0.165563	-0.486224	0.312067	0.850933	0.99796	0	0
0.92	0.159166	1.49096	-1.68903	0.795521	0.955429	0.919662	0.367744	-0.0964562	-0.296662	0.0877406	0.119282	0	0	-0.377241	0.0333758	-0.187052	0.0554283	0.223148	0	0	-0.212355	0.033376	-0.20184	-0.023988	-0.258053	0.423607	0.522022	1.36661	0	0	0.164252	-0.483138	0.314889	0.848713	1.00154	0	0
0.93	0.162024	1.48992	-1.68595	0.795133	0.944684	0.918173	0.375682	-0.10098	-0.315546	0.122724	0.127698	0	0	-0.377232	0.0260656	-0.203484	0.0845103	0.24184	0	0	-0.212625	0.0366642	-0.207785	-0.0215941	-0.260642	0.446974	0.519809	1.32398	0	0	0.160768	-0.479717	0.31635	0.846478	1.00871	0	0
0.94	0.15883	1.48747	-1.67713	0.794589	0.93344	0.916959	0.378115	-0.103044	-0.327798	0.155221	0.130923	0	0	-0.386021	0.020112	-0.205405	0.0982038	0.24713	0	0	-0.213675	0.0400559	-0.212551	-0.020966	-0.258828	0.443839	0.513533	1.33554	0	0	0.156306	-0.475927	0.319248	0.845042	1.00755	0	0
0.95	0.167118	1.48574	-1.67881	0.794161	0.921861	0.915735	0.38014	-0.108133	-0.340347	0.190602	0.136042	0	0	-0.392395	0.0141261	-0.209015	0.115733	0.252776	0	0	-0.212914	0.0427627	-0.218621	-0.020951	-0.257413	0.440475	0.508037	1.34426	0	0	0.14949	-0.472626	0.323962	0.843169	1.00629	0	0
0.96	0.179638	1.4844	-1.6839	0.793863	0.910043	0.914647	0.379679	-0.11233	-0.347827	0.220658	0.13994	0	0	-0.397678	0.0079171	-0.212004	0.134683	0.256843	0	0	-0.211028	0.0453957	-0.225398	-0.021865	-0.256657	0.437563	0.503761	1.35162	0	0	0.141582	-0.468763	0.329128	0.840993	1.00419	0	0
0.97	0.180784	1.48387	-1.67818	0.79315	0.898073	0.913699	0.378648	-0.113809	-0.35782	0.245992	0.142032	0	0	-0.401101	-0.000492635	-0.217913	0.155946	0.260441	0	0	-0.208103	0.0485953	-0.231055	-0.0234489	-0.255755	0.435222	0.499966	1.35823	0	0	0.133135	-0.465123	0.336687	0.836618	1.00263	0	0
0.98	0.17272	1.48284	-1.66345	0.792252	0.886142	0.913049	0.373606	-0.113265	-0.36192	0.25934	0.132669	0	0	-0.403337	-0.0105146	-0.224766	0.180305	0.262489	0	0	-0.206001	0.0524994	-0.236367	-0.0246473	-0.25495	0.432907	0.496702	1.36416	0	0	0.124869	-0.461176	0.344312	0.831891	1.00094	0	0
0.99	0.153774	1.483	-1.63965	0.790925	0.874124	0.912538	0.367439	-0.108998	-0.361808	0.263376	0.109071	0	0	-0.402678	-0.0222085	-0.23424	0.208167	0.262672	0	0	-0.202796	0.0571424	-0.239841	-0.0258911	-0.254166	0.430108	0.493885	1.36936	0	0	0.115717	-0.456664	0.350856	0.826604	0.999294	0	0
1	0.12719	1.48449	-1.60917	0.789268	0.861954	0.912107	0.360355	-0.102821	-0.361495	0.261966	0.0771086	0	0	-0.3984	-0.0357702	-0.245772	0.240483	0.261361	0	0	-0.198179	0.0621272	-0.241644	-0.0282116	-0.253405	0.426359	0.492005	1.37416	0	0	0.106037	-0.451979	0.35771	0.820464	0.998624	0	0
1.01	0.0932132	1.48676	-1.57278	0.787291	0.849711	0.911755	0.354066	-0.0963251	-0.362288	0.262995	0.0482938	0	0	-0.390785	-0.0507433	-0.258405	0.277613	0.258087	0	0	-0.192714	0.0672259	-0.241543	-0.0310539	-0.253062	0.422653	0.49145	1.37833	0	0	0.0959379	-0.446898	0.36449	0.813646	0.99891	0	0
1.02	0.0432325	1.48875	-1.5207	0.785194	0.837342	0.911635	0.34912	-0.0904225	-0.366508	0.271348	0.0285434	0	0	-0.380899	-0.0679358	-0.269906	0.319198	0.251666	0	0	-0.187209	0.0734687	-0.240621	-0.0343182	-0.253193	0.418392	0.491893	1.38138	0	0	0.0856263	-0.441183	0.371224	0.806317	0.999865	0	0
1.03	-0.0256568	1.48879	-1.45002	0.783116	0.824889	0.911919	0.344793	-0.0851355	-0.373342	0.287745	0.0169968	0	0	-0.370284	-0.0874334	-0.279688	0.364592	0.240293	0	0	-0.183135	0.0814552	-0.23865	-0.0375545	-0.25432	0.41474	0.49306	1.38325	0	0	0.0759149	-0.434621	0.379381	0.797511	1.00146	0	0
1.04	-0.132993	1.48907	-1.34026	0.781057	0.812508	0.912264	0.343405	-0.0784559	-0.382153	0.309814	0.0113944	0	0	-0.351965	-0.112738	-0.290134	0.421518	0.225671	0	0	-0.177732	0.0930482	-0.237108	-0.0405301	-0.260614	0.433762	0.500243	1.33681	0	0	0.0662421	-0.427577	0.389464	0.787277	1.00626	0	0
1.05	-0.225282	1.48522	-1.24672	0.778983	0.800254	0.913277	0.336707	-0.0709395	-0.386362	0.329028	0.00864767	0	0	-0.337589	-0.134798	-0.28899	0.471664	0.198507	0	0	-0.177135	0.104512	-0.233479	-0.0421633	-0.262695	0.428474	0.501604	1.34484	0	0	0.0572962	-0.41976	0.397736	0.777652	1.00726	0	0
1.06	-0.344869	1.48247	-1.12697	0.776657	0.788398	0.914134	0.332534	-0.0599698	-0.390058	0.345847	0.00866076	0	0	-0.313519	-0.16096	-0.287885	0.531811	0.165424	0	0	-0.174333	0.117935	-0.227943	-0.0431182	-0.265654	0.425349	0.504062	1.35036	0	0	0.0490102	-0.412261	0.408452	0.76863	1.00792	0	0
1.07	-0.478796	1.48101	-0.995041	0.774004	0.776771	0.914727	0.330768	-0.0464503	-0.391852	0.358591	0.00971974	0	0	-0.282008	-0.187636	-0.284277	0.596668	0.124712	0	0	-0.168743	0.131299	-0.220335	-0.0434049	-0.26914	0.424528	0.507065	1.35306	0	0	0.0400903	-0.405269	0.420082	0.760754	1.00738	0	0
1.08	-0.639164	1.48158	-0.838462	0.771083	0.765337	0.914806	0.332781	-0.0308957	-0.392266	0.366894	0.0101853	0	0	-0.241718	-0.214635	-0.278982	0.666213	0.0763951	0	0	-0.158156	0.143995	-0.211089	-0.0438369	-0.27354	0.426831	0.51107	1.35317	0	0	0.0308554	-0.399187	0.435842	0.753158	1.00359	0	0
1.09	-0.770659	1.48147	-0.712225	0.76806	0.754005	0.914939	0.331672	-0.0161781	-0.390246	0.369958	0.0108951	0	0	-0.202564	-0.236295	-0.269008	0.73146	0.0239575	0	0	-0.14891	0.153264	-0.201046	-0.0434167	-0.278401	0.43222	0.516144	1.35005	0	0	0.0208114	-0.394322	0.451943	0.747861	0.997029	0	0
1.1	-0.881803	1.48129	-0.606681	0.765013	0.742758	0.915103	0.327891	-0.00210785	-0.386179	0.368818	0.0132161	0	0	-0.163299	-0.254257	-0.256334	0.794331	-0.0311942	0	0	-0.140114	0.159724	-0.190884	-0.0426232	-0.283341	0.43952	0.521962	1.34468	0	0	0.0104296	-0.390979	0.470047	0.744372	0.987385	0	0
1.11	-1.05136	1.47799	-0.442035	0.762144	0.731542	0.914311	0.327446	0.0170589	-0.381809	0.36607	0.0183193	0	0	-0.112504	-0.294794	-0.274623	0.874647	-0.0889657	0	0	-0.126228	0.170896	-0.181358	-0.0430547	-0.291383	0.450062	0.532474	1.33681	0	0	-0.00126882	-0.387872	0.489176	0.744103	0.97435	0	0
1.12	-1.12326	1.47628	-0.375524	0.759292	0.720687	0.914758	0.319918	0.0303451	-0.372726	0.362268	0.0242126	0	0	-0.0734627	-0.307176	-0.25465	0.931939	-0.146187	0	0	-0.120022	0.174626	-0.171288	-0.0406963	-0.30146	0.481314	0.5456	1.28487	0	0	-0.00901653	-0.390229	0.525655	0.747804	0.908568	0	0
1.13	-1.1474	1.47474	-0.355965	0.756765	0.710015	0.91579	0.308548	0.040768	-0.362611	0.359695	0.0314981	0	0	-0.0395329	-0.314454	-0.232818	0.982963	-0.190549	0	0	-0.119152	0.176296	-0.162255	-0.0363746	-0.302545	0.47209	0.546934	1.31615	0	0	-0.0187792	-0.384891	0.530503	0.742679	0.938848	0	0
1.14	-1.14904	1.47296	-0.357102	0.754587	0.699333	0.917112	0.294848	0.0494543	-0.353214	0.357754	0.0401272	0	0	-0.00920612	-0.319236	-0.211246	1.0275	-0.215974	0	0	-0.119728	0.177404	-0.154946	-0.0316009	-0.307235	0.479911	0.552729	1.30903	0	0	-0.026689	-0.383111	0.549994	0.741091	0.924192	0	0
